<svg xmlns="http://www.w3.org/2000/svg" viewBox="0 0 1896.1 1079.27">
  <defs>
    <style>.a{fill:#ccc;stroke:#666;stroke-miterlimit:10;stroke-width:35.42px;}.b{fill:#666;}</style>
  </defs>
  <title>CineLink_HD-ico</title>
  <!--<rect class="a" x="17.71" y="17.71" width="1860.68" height="1043.85"/>-->
  <path class="b"
        d="M1209.92,323.81v-86H699.8v86H626.58v268.7h659.34V323.81ZM1249.46,556H663V360.26h73.22v-86h437.2v86h76Z"
        transform="translate(-0.11 1)"/>
  <rect class="b" x="783.75" y="470.54" width="28.43" height="117.08"/>
  <rect class="b" x="860.99" y="470.54" width="28.43" height="117.08"/>
  <rect class="b" x="938.24" y="470.54" width="28.43" height="117.08"/>
  <rect class="b" x="1015.48" y="470.54" width="28.43" height="117.08"/>
  <rect class="b" x="1092.72" y="470.54" width="28.43" height="117.08"/>
  <path class="b"
        d="M559.36,769.79a27.26,27.26,0,0,0-9.17-2.88,74.74,74.74,0,0,0-12.09-1q-22.16,0-38.71,13.51T479.13,812.3q-2.88,15,5.94,23.89t23,8.87a59.61,59.61,0,0,0,13.79-1.64,68.21,68.21,0,0,0,13.78-4.92l-6.24,15.09a64,64,0,0,1-11.88,3.73A80.73,80.73,0,0,1,502,858.51q-18.34,0-30.42-12.23t-7.94-33.82q4.88-25.43,26.45-42.7t51.23-17.27a78.38,78.38,0,0,1,13.34,1.12,39.51,39.51,0,0,1,10.13,2.88Z"
        transform="translate(-0.11 1)"/>
  <path class="b" d="M564.43,856.77H548.89l37.46-102.18h15.54Z" transform="translate(-0.11 1)"/>
  <path class="b"
        d="M677.94,859h-4.62l-28.53-53.17q-2.46-4.64-5.27-10.33t-8-16.74q-2.44,6.89-4.67,13.14T622,805l-19,51.74H587.48l37.46-102.18h10.69l26,48.84q6.45,12,12.28,24.83,2.87-8.33,3.64-10.65t5-13.86l18-49.17h15.54Z"
        transform="translate(-0.11 1)"/>
  <path class="b"
        d="M787.25,767.07H747.83l-11.62,31.71h33l-4.63,12.49h-33l-12.26,33h45.1l-4.63,12.49H699.41l37.46-102.18h54.85Z"
        transform="translate(-0.11 1)"/>
  <path class="b" d="M833.83,856.75H773.56L811,754.58h15.54l-32.87,89.67h44.78Z" transform="translate(-0.11 1)"/>
  <path class="b" d="M862.92,856.77H847.38l37.46-102.18h15.54Z" transform="translate(-0.11 1)"/>
  <path class="b"
        d="M976.42,859H971.8l-28.53-53.17q-2.46-4.64-5.27-10.33t-8-16.74q-2.44,6.89-4.67,13.14T920.47,805l-19,51.74H886l37.46-102.18h10.69l26,48.84q6.45,12,12.28,24.83,2.87-8.33,3.63-10.65t5-13.86l18-49.17h15.54Z"
        transform="translate(-0.11 1)"/>
  <path class="b"
        d="M1046.7,806l23.58,50.77-17.53.09-22.09-48L1013,856.75H997.83l37.61-102.18h15.22l-18,48.4,57.22-48.38,17.86,0Z"
        transform="translate(-0.11 1)"/>
  <path class="b"
        d="M1339.21,766.88H1326l-28.58,77.51h13.24A58.39,58.39,0,0,0,1349,830.78q16.48-13.61,20.26-33.31,2.82-14.73-5.54-22.66T1339.21,766.88Z"
        transform="translate(-0.11 1)"/>
  <path class="b"
        d="M1440.32,726.56H1189.71c-13.06,0-27.34,10.52-31.89,23.51l-37.28,106.44C1116,869.49,1122.9,880,1136,880h250.61c13.06,0,27.34-10.52,31.89-23.51l37.28-106.44C1460.29,737.08,1453.39,726.56,1440.32,726.56ZM1241.46,856.72l16.67-45.48h-52.46L1189,856.72h-15.54l37.46-102.18h15.54l-16,44.2h52.46l16-44.2h15.54L1257,856.74Zm143.71-59.26q-4.79,25-26.34,42.12t-49.93,17.14h-31.25l37.46-102.18h29.34q21.68,0,33.09,11.61T1385.17,797.47Z"
        transform="translate(-0.11 1)"/>
</svg>