<svg xmlns="http://www.w3.org/2000/svg" viewBox="0 0 1896.1 1079.27">
  <defs>
    <style>.a{fill:#ccc;stroke:#666;stroke-miterlimit:10;stroke-width:35.42px;}.b{fill:#666;}</style>
  </defs>
  <title>CineLink_4K-ico</title>
  <!--<rect class="a" x="17.71" y="17.71" width="1860.68" height="1043.85"/>-->
  <path class="b"
        d="M1209.92,323.81v-86H699.8v86H626.58v268.7h659.34V323.81ZM1249.46,556H663V360.26h73.22v-86h437.2v86h76Z"
        transform="translate(-0.11 1)"/>
  <rect class="b" x="783.75" y="470.54" width="28.43" height="117.08"/>
  <rect class="b" x="860.99" y="470.54" width="28.43" height="117.08"/>
  <rect class="b" x="938.24" y="470.54" width="28.43" height="117.08"/>
  <rect class="b" x="1015.48" y="470.54" width="28.43" height="117.08"/>
  <rect class="b" x="1092.72" y="470.54" width="28.43" height="117.08"/>
  <path class="b"
        d="M560,768.23a27.36,27.36,0,0,0-9.21-2.89,75.07,75.07,0,0,0-12.14-1q-22.25,0-38.86,13.56t-20.33,33q-2.89,15.08,6,24t23.1,8.91a59.77,59.77,0,0,0,13.84-1.65,68.4,68.4,0,0,0,13.83-4.94L530,852.36a64.2,64.2,0,0,1-11.92,3.75,81,81,0,0,1-15.6,1.2Q484,857.3,471.92,845t-8-34q4.9-25.53,26.55-42.87t51.43-17.34A78.59,78.59,0,0,1,555.32,752a39.72,39.72,0,0,1,10.17,2.89Z"
        transform="translate(-0.11 1)"/>
  <path class="b" d="M565.14,855.55h-15.6L587.15,753h15.6Z" transform="translate(-0.11 1)"/>
  <path class="b"
        d="M679.1,857.79h-4.64L645.81,804.4q-2.47-4.66-5.29-10.37t-8.06-16.8q-2.45,6.92-4.69,13.19t-4.85,13.19l-19,51.94h-15.6L625.89,753h10.73l26.13,49q6.48,12.06,12.33,24.93,2.88-8.36,3.65-10.7t5.07-13.91l18.06-49.37h15.6Z"
        transform="translate(-0.11 1)"/>
  <path class="b"
        d="M788.85,765.49H749.28l-11.67,31.84h33.14l-4.65,12.54H733L720.7,843H766l-4.65,12.54H700.66L738.27,753h55.07Z"
        transform="translate(-0.11 1)"/>
  <path class="b" d="M835.62,855.53H775.11L812.71,753h15.6l-33,90h45Z" transform="translate(-0.11 1)"/>
  <path class="b" d="M864.82,855.55h-15.6L886.83,753h15.6Z" transform="translate(-0.11 1)"/>
  <path class="b"
        d="M978.78,857.79h-4.64L945.49,804.4Q943,799.74,940.2,794t-8.06-16.8q-2.45,6.92-4.69,13.19t-4.85,13.19l-19,51.94H888L925.57,753H936.3l26.13,49q6.48,12.06,12.33,24.93,2.88-8.36,3.65-10.7t5.07-13.91l18.06-49.37h15.6Z"
        transform="translate(-0.11 1)"/>
  <path class="b"
        d="M1049.34,804.56l23.68,51-17.6.09-22.18-48.15-17.69,48.06h-15.28L1038,752.94h15.28l-18,48.59L1092.72,753l17.93,0Z"
        transform="translate(-0.11 1)"/>
  <path class="b" d="M1234.77,791l-28.47,25.12h28.11l9.15-24.95,4.75-12.52q-3.52,3.37-5.95,5.62T1234.77,791Z"
        transform="translate(-0.11 1)"/>
  <path class="b"
        d="M1411.36,724.82H1192.92c-13.11,0-27.45,10.57-32,23.6l-37.43,106.86c-4.57,13,2.37,23.6,15.48,23.6H1357.4c13.11,0,27.45-10.57,32-23.6l37.43-106.86C1431.4,735.39,1424.47,724.82,1411.36,724.82ZM1257,827.2h-12l-10.37,28.3H1220l10.37-28.29H1189.6l1.43-10.77,71.42-63.51h9.76L1249,816.11h12Zm56.37-22.67,23.68,51-17.6.09-22.18-48.15-17.69,48.06H1264.3l37.76-102.58h15.28l-18.05,48.59,57.45-48.57,17.93,0Z"
        transform="translate(-0.11 1)"/>
</svg>