<svg width="1896.1000000000001" height="1079.27" xmlns="http://www.w3.org/2000/svg" xmlns:svg="http://www.w3.org/2000/svg">
 <defs>
  <style>.a{fill:#ccc;stroke:#666;stroke-miterlimit:10;stroke-width:35.42px;}.b{fill:#666;}</style>
 </defs>
 <title>Input-ico</title>
 <!--<rect class="a" x="17.71" y="17.71" width="1860.68" height="1043.85"/>-->
 <g>
  <title>Layer 1</title>
  <path class="b" d="m1209.81,324.81l0,-86l-510.12,0l0,86l-73.22,0l0,268.7l659.34,0l0,-268.7l-76,0zm39.54,232.19l-586.46,0l0,-195.74l73.22,0l0,-86l437.2,0l0,86l76,0l0.04,195.74z" id="svg_1" fill="#7f007f"/>
  <g id="svg_14">
   <path fill="#7f007f" class="b" d="m781.7816,859.30791l-14.77,0l35.59,-97.08l14.77,0l-35.59,97.08z" id="svg_9"/>
   <path fill="#7f007f" class="b" d="m889.6316,861.41791l-4.39,0l-27.08,-50.51q-2.34,-4.41 -5,-9.81t-7.63,-15.9l-4.44,12.48q-2.13,5.93 -4.59,12.48l-18,49.16l-14.77,0l35.58,-97.08l10.16,0l24.69,46.38q6.12,11.42 11.66,23.59q2.72,-7.9 3.45,-10.11t4.8,-13.17l17.09,-46.73l14.75,0l-36.28,99.22z" id="svg_10"/>
   <path class="b" d="m954.7716,816.68791l-14.53,0l-15.75,42.58l-14.46,0l35.58,-97.08l28.64,0q10.44,0 16.51,6.69t4,17.65a33.94,33.94 0 0 1 -14.17,21.84a43.25,43.25 0 0 1 -25.82,8.32zm13.13,-42.76l-12,0l-11.39,31l12,0a24.22,24.22 0 0 0 15.35,-5.4a21.47,21.47 0 0 0 8.32,-13q1.11,-5.78 -2.55,-9.21a13.66,13.66 0 0 0 -9.72,-3.39l-0.01,0z" id="svg_11" fill="#7f007f"/>
   <path fill="#7f007f" class="b" d="m1072.0316,825.05791q-6.55,17.58 -20.2,26.74a54.77,54.77 0 0 1 -31.23,9.17q-15,0 -23.32,-8t-5.67,-21.74l0.54,-2.81a26.82,26.82 0 0 1 1.38,-4l22.84,-62.22l14.79,0l-22.74,61.94a28.27,28.27 0 0 0 -1.86,5.89q-1.6,8.31 2.79,13.07t14.67,4.76a34.67,34.67 0 0 0 21.22,-6.66a37.79,37.79 0 0 0 13.05,-17.63l22.56,-61.32l14.3,0l-23.12,62.81z" id="svg_12"/>
   <path class="b" d="m1178.3116,774.08791l-31.06,0l-31.35,85.21l-14.76,0l31.33,-85.19l-31,0l4.24,-11.87l76.81,0l-4.21,11.85z" id="svg_13" fill="#7f007f"/>
  </g>
  <rect fill="#666" stroke-width="null" stroke-dasharray="null" stroke-linejoin="null" stroke-linecap="null" x="1068.44332" y="463.05105" width="3.16049" height="0" id="svg_16"/>
  <rect fill="#666" stroke-width="null" stroke-dasharray="null" stroke-linejoin="null" stroke-linecap="null" x="1062.12233" y="463.05105" width="9.48148" height="0" id="svg_17"/>
  <rect fill="#666" stroke-width="null" stroke-dasharray="null" stroke-linejoin="null" stroke-linecap="null" x="796.75194" y="423.61895" width="307.9136" height="54.40741" id="svg_21"/>
 </g>
</svg>