<svg xmlns="http://www.w3.org/2000/svg" viewBox="0 0 1896.1 1079.27">
  <defs>
    <style>.a{fill:#ccc;stroke:#666;stroke-miterlimit:10;stroke-width:35.42px;}.b{fill:#666;}</style>
  </defs>
  <title>IP_Input-ico</title>
  <!--<rect class="a" x="17.71" y="17.71" width="1860.68" height="1043.85"/>-->
  <path class="b"
        d="M1209.92,323.81v-86H699.8v86H626.58v268.7h659.34V323.81ZM1249.46,556H663V360.26h73.22v-86h437.2v86h76Z"
        transform="translate(-0.11 1)"/>
  <rect class="b" x="783.75" y="470.54" width="28.43" height="117.08"/>
  <rect class="b" x="860.99" y="470.54" width="28.43" height="117.08"/>
  <rect class="b" x="938.24" y="470.54" width="28.43" height="117.08"/>
  <rect class="b" x="1015.48" y="470.54" width="28.43" height="117.08"/>
  <rect class="b" x="1092.72" y="470.54" width="28.43" height="117.08"/>
  <path class="b" d="M683.1,855.74l-14.77,0,35.59-97.08h14.77Z" transform="translate(-0.11 1)"/>
  <path class="b"
        d="M749.74,813.12l-14.53,0-15.75,42.58-14.46,0,35.58-97.08h28.64q10.44,0,16.51,6.69t4,17.65a33.94,33.94,0,0,1-14.17,21.84A43.25,43.25,0,0,1,749.74,813.12Zm13.13-42.76h-12l-11.39,31h12a24.22,24.22,0,0,0,15.35-5.4,21.47,21.47,0,0,0,8.32-13q1.11-5.78-2.55-9.21A13.66,13.66,0,0,0,762.87,770.36Z"
        transform="translate(-0.11 1)"/>
  <path class="b" d="M827.62,855.74l-14.77,0,35.59-97.08h14.77Z" transform="translate(-0.11 1)"/>
  <path class="b"
        d="M935.47,857.85h-4.39L904,807.34q-2.34-4.41-5-9.81t-7.63-15.9l-4.44,12.48q-2.13,5.93-4.59,12.48l-18,49.16-14.77,0,35.58-97.08h10.16L920,805.05q6.12,11.42,11.66,23.59,2.72-7.9,3.45-10.11t4.8-13.17L957,758.63l14.75,0Z"
        transform="translate(-0.11 1)"/>
  <path class="b"
        d="M1000.61,813.12l-14.53,0-15.75,42.58-14.46,0,35.58-97.08h28.64q10.44,0,16.51,6.69t4,17.65a33.94,33.94,0,0,1-14.17,21.84A43.25,43.25,0,0,1,1000.61,813.12Zm13.13-42.76h-12l-11.39,31h12a24.22,24.22,0,0,0,15.35-5.4,21.47,21.47,0,0,0,8.32-13q1.11-5.78-2.55-9.21A13.66,13.66,0,0,0,1013.75,770.36Z"
        transform="translate(-0.11 1)"/>
  <path class="b"
        d="M1117.87,821.49q-6.55,17.58-20.2,26.74a54.77,54.77,0,0,1-31.23,9.17q-15,0-23.32-8t-5.67-21.74l.54-2.81a26.82,26.82,0,0,1,1.38-4l22.84-62.22H1077l-22.74,61.94a28.27,28.27,0,0,0-1.86,5.89q-1.6,8.31,2.79,13.07t14.67,4.76a34.67,34.67,0,0,0,21.22-6.66A37.79,37.79,0,0,0,1104.13,820l22.56-61.32,14.3,0Z"
        transform="translate(-0.11 1)"/>
  <path class="b" d="M1224.15,770.52h-31.06l-31.35,85.21-14.76,0,31.33-85.19h-31l4.24-11.87h76.81Z"
        transform="translate(-0.11 1)"/>
</svg>