<svg xmlns="http://www.w3.org/2000/svg" viewBox="0 0 197.14 197.14"><defs><style>.a{fill:#fff;}.b,.d{fill:#666;}.c{fill:none;stroke:#666;stroke-miterlimit:10;stroke-width:12px;}.d{font-size:32px;font-family:Avenir;}</style></defs><title>VGA-ico</title><rect class="a" x="6.17" y="6.07" width="185" height="185"/><path class="b" d="M493.85,405.57H296.71V208.43H493.85V405.57Zm-182.14-15H478.85V223.43H311.71V390.57Z" transform="translate(-296.71 -208.43)"/><polygon class="c" points="27.5 53.07 169.5 53.07 169.5 94.74 144.33 119.91 52.83 119.91 27.42 94.49 27.5 53.07"/><circle class="b" cx="59.32" cy="71.1" r="6.31"/><circle class="b" cx="78.99" cy="71.1" r="6.31"/><circle class="b" cx="98.67" cy="71.1" r="6.31"/><circle class="b" cx="118.34" cy="71.1" r="6.31"/><circle class="b" cx="138.02" cy="71.1" r="6.31"/><circle class="b" cx="69.34" cy="86.41" r="6.31"/><circle class="b" cx="89.02" cy="86.41" r="6.31"/><circle class="b" cx="108.69" cy="86.41" r="6.31"/><circle class="b" cx="128.36" cy="86.41" r="6.31"/><circle class="b" cx="148.04" cy="86.41" r="6.31"/><circle class="b" cx="59.32" cy="101.65" r="6.31"/><circle class="b" cx="78.99" cy="101.65" r="6.31"/><circle class="b" cx="98.67" cy="101.65" r="6.31"/><circle class="b" cx="118.34" cy="101.65" r="6.31"/><circle class="b" cx="138.02" cy="101.65" r="6.31"/><text class="d" transform="translate(63.34 157.9)">VGA</text></svg>