<svg xmlns="http://www.w3.org/2000/svg" viewBox="0 0 50.49 59.54">
  <defs>
    <style>.a{fill:none;stroke:#fff;stroke-miterlimit:10;stroke-width:2.5px;fill-rule:evenodd;}</style>
  </defs>
  <title>Apple-TV-ico-white</title>
  <path class="a"
        d="M53.45,46.91a39.72,39.72,0,0,1-3.6,6.71c-2.33,3.55-5.62,8-9.7,8-3.62,0-4.55-2.36-9.47-2.33s-5.94,2.37-9.57,2.34c-4.08,0-7.2-4-9.53-7.59-6.53-9.94-7.21-21.6-3.18-27.8,2.86-4.41,7.38-7,11.62-7s7,2.37,10.61,2.37,5.58-2.37,10.58-2.37a14.11,14.11,0,0,1,10.63,5.61C42.49,30,44,43.34,53.45,46.91h0Z"
        transform="translate(-4.65 -3.35)"/>
  <path class="a"
        d="M38.33,13.66a12.12,12.12,0,0,0,2.69-9,13.1,13.1,0,0,0-8.46,4.55c-1.84,2.23-3.36,5.54-2.77,8.76a11.06,11.06,0,0,0,8.53-4.33h0Z"
        transform="translate(-4.65 -3.35)"/>
</svg>

<svg viewBox="0 0 50.49 59.54" xmlns="http://www.w3.org/2000/svg" xmlns:svg="http://www.w3.org/2000/svg">
<defs>
  <style>.a{fill:none;stroke:#231f20;stroke-miterlimit:10;stroke-width:2.5px;fill-rule:evenodd;}</style>
</defs>
<title>Apple-TV-ico-black</title>
<g>
  <title>Layer 1</title>
  <path fill="#fff" id="svg_1" d="m44.05391,39.86885a31.79141,32.6046 0 0 1 -2.8814,5.50798c-1.8649,2.91406 -4.49818,6.56689 -7.76376,6.56689c-2.8974,0 -3.64176,-1.93723 -7.57967,-1.91261s-4.7543,1.94544 -7.65971,1.92081c-3.26558,0 -5.76279,-3.28344 -7.6277,-6.23034c-5.22653,-8.15936 -5.7708,-17.7306 -2.54523,-22.81994c2.28911,-3.62 5.90686,-5.74603 9.30051,-5.74603s5.60272,1.94544 8.49212,1.94544s4.46616,-1.94544 8.4681,-1.94544a11.29347,11.58235 0 0 1 8.50812,4.60503c-7.48363,4.22743 -6.27504,15.17772 1.28862,18.10819l0,0z" class="a"/>
  <path fill="#fff" id="svg_2" d="m30.33079,13.95925a8.76466,8.08635 0 0 0 1.94529,-6.00472a9.47335,8.7402 0 0 0 -6.11791,3.03572c-1.33061,1.48784 -2.42981,3.69624 -2.00314,5.84459a7.99811,7.37913 0 0 0 6.16853,-2.88894l0,0l0.00723,0.01334z" class="a"/>
</g>
</svg>