<svg viewBox="0 0 50.49 59.54" xmlns="http://www.w3.org/2000/svg" xmlns:svg="http://www.w3.org/2000/svg">
  <defs>
    <style>.a{fill:none;stroke:#231f20;stroke-miterlimit:10;stroke-width:2.5px;fill-rule:evenodd;}</style>
  </defs>
  <title>Apple-TV-ico-black</title>
  <g>
    <title>Layer 1</title>
    <path fill="black" id="svg_1" d="m44.05391,39.86885a31.79141,32.6046 0 0 1 -2.8814,5.50798c-1.8649,2.91406 -4.49818,6.56689 -7.76376,6.56689c-2.8974,0 -3.64176,-1.93723 -7.57967,-1.91261s-4.7543,1.94544 -7.65971,1.92081c-3.26558,0 -5.76279,-3.28344 -7.6277,-6.23034c-5.22653,-8.15936 -5.7708,-17.7306 -2.54523,-22.81994c2.28911,-3.62 5.90686,-5.74603 9.30051,-5.74603s5.60272,1.94544 8.49212,1.94544s4.46616,-1.94544 8.4681,-1.94544a11.29347,11.58235 0 0 1 8.50812,4.60503c-7.48363,4.22743 -6.27504,15.17772 1.28862,18.10819l0,0z" class="a"/>
    <path fill="black" id="svg_2" d="m30.33079,13.95925a8.76466,8.08635 0 0 0 1.94529,-6.00472a9.47335,8.7402 0 0 0 -6.11791,3.03572c-1.33061,1.48784 -2.42981,3.69624 -2.00314,5.84459a7.99811,7.37913 0 0 0 6.16853,-2.88894l0,0l0.00723,0.01334z" class="a"/>
  </g>
</svg>