<svg xmlns="http://www.w3.org/2000/svg" xmlns:xlink="http://www.w3.org/1999/xlink" viewBox="0 0 47.21 39.47">
    <defs>
        <style>.a{fill:none;}.b{clip-path:url(#a);}</style>
        <clipPath id="a" transform="translate(-18.29 -14.27)">
            <polygon class="a" points="10.94 14.28 65.88 14.28 65.88 54.44 11.68 54.44 10.94 14.28"/>
        </clipPath>
    </defs>
    <title>Audio</title>
    <path d="M45.91,40.49a1.17,1.17,0,1,0,1.47,1.83,10.62,10.62,0,0,0,0-16.59,1.18,1.18,0,1,0-1.47,1.84,8.27,8.27,0,0,1,0,12.92h0Zm0,0"
          transform="translate(-18.29 -14.27)"/>
    <path d="M51.61,47.29A1.19,1.19,0,0,0,52.34,47a16.66,16.66,0,0,0,0-26,1.17,1.17,0,1,0-1.47,1.84,14.31,14.31,0,0,1,0,22.35,1.17,1.17,0,0,0-.18,1.65,1.19,1.19,0,0,0,.92.44h0Zm0,0"
          transform="translate(-18.29 -14.27)"/>
    <g class="b">
        <path d="M56.25,52A1.17,1.17,0,0,0,57,51.79a22.75,22.75,0,0,0,0-35.54,1.18,1.18,0,0,0-1.47,1.84,20.4,20.4,0,0,1,0,31.87A1.17,1.17,0,0,0,56.25,52h0Zm0,0"
              transform="translate(-18.29 -14.27)"/>
        <path d="M18.29,27.57v13a3.86,3.86,0,0,0,3.9,3.76h6.46c1.2,0.59,6.81,5,11.63,9.11a1.25,1.25,0,0,0,.76.34,0.59,0.59,0,0,0,.34-0.08,1,1,0,0,0,.54-1V15.48a1.05,1.05,0,0,0-.54-1.07,1,1,0,0,0-1.19.08c-4.8,4.27-10.33,9.24-11.55,9.24H22.19a3.93,3.93,0,0,0-3.9,3.83h0Zm2.35,0a1.61,1.61,0,0,1,1.55-1.48h6.56c0.44,0,1.42.22,10.82-8v32c-9.4-7.92-10.39-8.14-10.82-8.14H22.19a1.55,1.55,0,0,1-1.55-1.41v-13Zm0,0"
              transform="translate(-18.29 -14.27)"/>
    </g>
</svg>