<svg xmlns="http://www.w3.org/2000/svg" viewBox="0 0 383.89 60.31"><defs><style>.a{fill:gray;}.b{fill:#fff;}.c{fill:#e87300;}</style></defs><title>CineNet_logo</title><path class="a" d="M58.5,16.09a15.41,15.41,0,0,0-5.19-1.63,42.27,42.27,0,0,0-6.85-.54,33.62,33.62,0,0,0-21.92,7.65,31.12,31.12,0,0,0-11.47,18.6q-1.63,8.51,3.36,13.53t13,5a33.76,33.76,0,0,0,7.81-.93A38.67,38.67,0,0,0,45.08,55l-3.54,8.55a36.27,36.27,0,0,1-6.73,2.12,45.78,45.78,0,0,1-8.8.67A23.21,23.21,0,0,1,8.79,59.41q-6.85-6.93-4.5-19.15,2.76-14.4,15-24.18t29-9.78a44.3,44.3,0,0,1,7.55.63,22.36,22.36,0,0,1,5.74,1.63Z" transform="translate(-3.69 -6.3)"/><path class="a" d="M61.37,65.35h-8.8L73.79,7.48h8.8Z" transform="translate(-3.69 -6.3)"/><path class="a" d="M125.65,66.61H123L106.88,36.5q-1.39-2.63-3-5.85t-4.55-9.48Q98,25.08,96.7,28.61T94,36.05L83.23,65.35h-8.8L95.64,7.48h6.05l14.74,27.66q3.65,6.8,7,14.06,1.62-4.72,2.06-6t2.86-7.85L138.49,7.47h8.8Z" transform="translate(-3.69 -6.3)"/><path class="a" d="M187.56,14.55H165.24l-6.58,18h18.69l-2.62,7.07H156.06l-6.94,18.69h25.54L172,65.34H137.82L159,7.48H190.1Z" transform="translate(-3.69 -6.3)"/><path class="b" d="M231,66.61h-2.62L212.26,36.5q-1.39-2.63-3-5.85t-4.55-9.48q-1.38,3.9-2.65,7.44t-2.73,7.44l-10.74,29.3h-8.8L201,7.48h6.05l14.74,27.66q3.65,6.8,7,14.06,1.62-4.72,2.06-6t2.86-7.85L243.88,7.47h8.8Z" transform="translate(-3.69 -6.3)"/><path class="b" d="M292.95,14.55H270.62l-6.58,18h18.69l-2.62,7.07H261.45L254.5,58.27H280l-2.62,7.07H243.2L264.41,7.48h31.06Z" transform="translate(-3.69 -6.3)"/><path class="b" d="M344.24,14.55H325.73L307,65.34h-8.8l18.68-50.79H298.46L301,7.48h45.78Z" transform="translate(-3.69 -6.3)"/><polygon class="c" points="370.11 59.05 331.95 59.05 345.73 20.89 383.89 20.89 370.11 59.05"/><path d="M363.66,44.49A3.78,3.78,0,0,1,366,46.33a5.11,5.11,0,0,1,.5,3.76,10.05,10.05,0,0,1-3.85,6.26,12.25,12.25,0,0,1-7.72,2.41,7.32,7.32,0,0,1-3.12-.63l.6-3.15a11.45,11.45,0,0,0,1.64.68,6,6,0,0,0,1.73.21,8.2,8.2,0,0,0,4.77-1.52,6.22,6.22,0,0,0,2.68-4.07,3.2,3.2,0,0,0-3.33-4l-.67,0-.07-2.73A10.2,10.2,0,0,0,363.21,42a4.3,4.3,0,0,0,2.08-2.64,1.64,1.64,0,0,0-.45-1.6A2.59,2.59,0,0,0,363,37.2a8.27,8.27,0,0,0-3.78,1l-.09-2.8a16.1,16.1,0,0,1,2.46-.9,9.19,9.19,0,0,1,2.38-.3,4.82,4.82,0,0,1,3.73,1.41,3.91,3.91,0,0,1,.88,3.59,6.24,6.24,0,0,1-1.9,3.39A7.25,7.25,0,0,1,363.66,44.49Z" transform="translate(-3.69 -6.3)"/></svg>