<svg xmlns="http://www.w3.org/2000/svg" xmlns:xlink="http://www.w3.org/1999/xlink" viewBox="0 0 53.83 39.16">
  <defs>
    <style>.a{fill:none;}.b{clip-path:url(#a);}</style>
    <clipPath id="a" transform="translate(-15.48 -14.28)">
      <rect class="a" x="15.48" y="14.18" width="53.83" height="39.4"/>
    </clipPath>
  </defs>
  <title>CineView</title>
  <g class="b">
    <path
      d="M66.17,16.85H18.63a0.57,0.57,0,0,0-.57.57v29a0.57,0.57,0,0,0,.57.57H66.17a0.57,0.57,0,0,0,.57-0.57v-29a0.57,0.57,0,0,0-.57-0.57h0Zm-0.57,29H19.2V18H65.6V45.82Zm0,0"
      transform="translate(-15.48 -14.28)"/>
    <path
      d="M66.81,14.28H18a2.51,2.51,0,0,0-2.51,2.51V47A2.51,2.51,0,0,0,18,49.54h17l-1.19,2.19H31a0.86,0.86,0,1,0,0,1.71H53.82a0.86,0.86,0,0,0,0-1.71H51l-1.19-2.19h17A2.51,2.51,0,0,0,69.32,47V16.79a2.51,2.51,0,0,0-2.51-2.51h0ZM49.19,51.73H35.61l1.19-2.19H48ZM67.6,47a0.79,0.79,0,0,1-.79.79H18A0.79,0.79,0,0,1,17.2,47V16.79A0.79,0.79,0,0,1,18,16H66.81a0.79,0.79,0,0,1,.79.79V47Zm0,0"
      transform="translate(-15.48 -14.28)"/>
  </g>
</svg>