<?xml version="1.0" encoding="utf-8"?>
<!-- Generator: Adobe Illustrator 19.2.0, SVG Export Plug-In . SVG Version: 6.00 Build 0)  -->
<!DOCTYPE svg PUBLIC "-//W3C//DTD SVG 1.1//EN" "http://www.w3.org/Graphics/SVG/1.1/DTD/svg11.dtd">
<svg version="1.1" id="Layer_1" xmlns="http://www.w3.org/2000/svg" xmlns:xlink="http://www.w3.org/1999/xlink" x="0px" y="0px"
	 viewBox="0 0 1280 800" style="enable-background:new 0 0 1280 800;" xml:space="preserve">
<style type="text/css">
	.st0{fill:#FFFFFF;}
</style>
<path class="st0" d="M639.8,632.4c-127.9,0-231.9-104-231.9-231.9c0-127.9,104-231.9,231.9-231.9s231.9,104,231.9,231.9
	C871.7,528.4,767.7,632.4,639.8,632.4z M639.8,203.5c-108.6,0-197,88.4-197,197s88.4,197,197,197c108.6,0,197-88.4,197-197
	S748.4,203.5,639.8,203.5z"/>
<path class="st0" d="M558.1,455.8c-7.7,0-14.8-5.1-16.9-12.9c-2.5-9.3,3-18.9,12.3-21.4l88.7-23.9c9.3-2.5,18.9,3,21.4,12.3
	c2.5,9.3-3,18.9-12.3,21.4l-88.7,23.9C561.1,455.7,559.6,455.8,558.1,455.8z"/>
<path class="st0" d="M646.7,430.6c-9.2,0-16.9-7.2-17.4-16.4l-7.9-133.3c-0.6-9.6,6.8-17.9,16.4-18.5c9.7-0.6,17.9,6.8,18.5,16.4
	l7.9,133.3c0.6,9.6-6.8,17.9-16.4,18.5C647.4,430.6,647,430.6,646.7,430.6z"/>
</svg>
