<svg xmlns="http://www.w3.org/2000/svg" viewBox="0 0 376.8 126.7">
    <defs>
        <style>.a{fill:#fff;}</style>
    </defs>
    <title>Network-switch-white</title>
    <path class="a"
          d="M562.8,260.65H230a4,4,0,0,0-4,4v82.7a4,4,0,0,0,4,4H562.8a4,4,0,0,0,4-4v-82.7a4,4,0,0,0-4-4h0Zm-4,82.7H234v-74.7H558.8v74.7Zm0,0"
          transform="translate(-208 -242.65)"/>
    <path class="a"
          d="M567.24,242.65H225.56A17.58,17.58,0,0,0,208,260.21v91.59a17.58,17.58,0,0,0,17.56,17.55H567.25a17.57,17.57,0,0,0,17.55-17.55V260.21a17.58,17.58,0,0,0-17.56-17.55h0Zm5.56,109.14a5.56,5.56,0,0,1-5.56,5.55H225.56a5.56,5.56,0,0,1-5.56-5.55V260.21a5.56,5.56,0,0,1,5.56-5.55H567.24a5.56,5.56,0,0,1,5.56,5.55v91.59Zm0,0"
          transform="translate(-208 -242.65)"/>
    <rect class="a" x="42.79" y="44.37" width="38.42" height="27.66"/>
    <rect class="a" x="51.69" y="61.72" width="20.61" height="20.61"/>
    <rect class="a" x="104.54" y="44.37" width="38.42" height="27.66"/>
    <rect class="a" x="113.44" y="61.72" width="20.61" height="20.61"/>
    <rect class="a" x="166.29" y="44.37" width="38.42" height="27.66"/>
    <rect class="a" x="175.19" y="61.72" width="20.61" height="20.61"/>
    <rect class="a" x="228.04" y="44.37" width="38.42" height="27.66"/>
    <rect class="a" x="236.94" y="61.72" width="20.61" height="20.61"/>
    <rect class="a" x="289.79" y="44.37" width="38.42" height="27.66"/>
    <rect class="a" x="298.69" y="61.72" width="20.61" height="20.61"/>
</svg>