<svg xmlns="http://www.w3.org/2000/svg" viewBox="0 0 512 512"><defs><style>.a{fill:#fff;}</style></defs><title>DVD-ico-white</title><path class="a" d="M256,512A256,256,0,0,1,75,75,256,256,0,1,1,437,437,254.33,254.33,0,0,1,256,512Zm0-491.1C126.36,20.9,20.9,126.36,20.9,256S126.36,491.1,256,491.1,491.1,385.64,491.1,256,385.64,20.9,256,20.9Z" transform="translate(0 0)"/><path class="a" d="M335.18,75.71a10.42,10.42,0,0,1-4-.8A194.86,194.86,0,0,0,256,60a10.45,10.45,0,1,1,0-20.9,215.65,215.65,0,0,1,83.19,16.53A10.45,10.45,0,0,1,335.18,75.71Z" transform="translate(0 0)"/><path class="a" d="M462.47,266.45A10.45,10.45,0,0,1,452,256c0-69.44-35.57-132.29-95.16-168.12A10.45,10.45,0,0,1,367.63,70,216.8,216.8,0,0,1,472.92,256,10.45,10.45,0,0,1,462.47,266.45Z" transform="translate(0 0)"/><path class="a" d="M256,333.32A77.32,77.32,0,1,1,333.32,256,77.41,77.41,0,0,1,256,333.32Zm0-133.75A56.42,56.42,0,1,0,312.42,256,56.49,56.49,0,0,0,256,199.58Z" transform="translate(0 0)"/><path class="a" d="M256,292.57A36.57,36.57,0,1,1,292.57,256,36.61,36.61,0,0,1,256,292.57Zm0-52.24A15.67,15.67,0,1,0,271.67,256,15.69,15.69,0,0,0,256,240.33Z" transform="translate(0 0)"/></svg>