<svg xmlns="http://www.w3.org/2000/svg" viewBox="0 0 48 48">
    <defs>
        <style>.a{fill:#666;}</style>
    </defs>
    <title>Explore_Mode</title>
    <path class="a"
          d="M60.24,10.4V4h-6.4V6.4H39.43V4H33V6.4H18.63V4h-6.4v6.4h2.4V24.8h-2.4v6.4h2.4V45.6h-2.4V52h6.4V49.6H33V52h6.4V49.6h14.4V52h6.4V45.6h-2.4V31.2h2.4V24.8h-2.4V10.4h2.4Zm-4.8-4.8h3.2V8.8h-3.2V5.6Zm-20.8,0h3.2V8.8h-3.2V5.6ZM13.84,8.8V5.6H17V8.8h-3.2Zm0,20.8V26.4H17v3.2h-3.2ZM17,50.4h-3.2V47.2H17v3.2Zm20.8,0h-3.2V47.2h3.2v3.2Zm20.8-3.2v3.2h-3.2V47.2h3.2Zm0-20.8v3.2h-3.2V26.4h3.2Zm-2.4-1.6h-2.4v6.4h2.4V45.6h-2.4V48H39.43V45.6H33V48H18.63V45.6h-2.4V31.2h2.4V24.8h-2.4V10.4h2.4V8H33v2.4h6.4V8h14.4v2.4h2.4V24.8Zm0,0"
          transform="translate(-12.24 -4)"/>
</svg>