<?xml version="1.0"?>
<svg width="35" height="35" xmlns="http://www.w3.org/2000/svg" xmlns:svg="http://www.w3.org/2000/svg">
 <!-- Created with SVG-edit - http://svg-edit.googlecode.com/ -->
 <g>
  <title>Layer 1</title>
  <path stroke="#000000" d="m26.070129,4.089087c-1.109029,0.314064 -2.253174,0.567257 -3.38775,0.818147c-1.127682,0.249365 -2.2147,0.653451 -3.311248,1.03891c-1.06748,0.375241 -2.102327,0.796831 -3.087388,1.377525c-0.962201,0.567219 -1.917561,1.161942 -2.779141,1.869454c-0.881659,0.724001 -1.523406,1.592407 -2.096492,2.485063c-0.574627,0.895057 -1.060175,1.869427 -1.213791,2.902549c-0.155044,1.042729 -0.20656,2.358539 0.661201,2.82683c0.980828,0.529306 2.347091,0.088949 3.458913,0.26698c1.157976,0.185421 2.283749,0.408847 3.423908,0.647041c1.151328,0.240527 2.218456,0.612185 2.721221,1.42594c0.542129,0.87747 0.943669,1.837459 0.74149,2.82461c-0.192531,0.94004 -0.83266,1.801013 -1.423011,2.627687c-0.625899,0.876455 -1.500633,1.54399 -2.369027,2.133827c-0.919156,0.624313 -1.984709,1.061676 -3.006123,1.552706c-0.987102,0.474535 -1.884854,1.041739 -2.620978,1.604005l-0.425798,0.83273" id="svg_24" stroke-linecap="null" stroke-linejoin="null" stroke-dasharray="null" stroke-width="3" fill="none"/>
 </g>
</svg>