<?xml version="1.0" encoding="utf-8"?>
<!-- Generator: Adobe Illustrator 21.0.2, SVG Export Plug-In . SVG Version: 6.00 Build 0)  -->
<!DOCTYPE svg PUBLIC "-//W3C//DTD SVG 1.1//EN" "http://www.w3.org/Graphics/SVG/1.1/DTD/svg11.dtd">
<svg version="1.1" id="Layer_1" xmlns="http://www.w3.org/2000/svg" xmlns:xlink="http://www.w3.org/1999/xlink" x="0px" y="0px"
	 viewBox="0 0 677 532" style="enable-background:new 0 0 677 532;" xml:space="preserve">
<style type="text/css">
	.st0{fill:#494949;}
	.st1{fill:#727272;}
	.st2{fill:#FFFFFF;}
</style>
<rect x="65.1" y="168" class="st0" width="547.7" height="207"/>
<g>
	<circle class="st1" cx="133.3" cy="215.4" r="7"/>
	<circle class="st1" cx="133.3" cy="189.5" r="7"/>
	<circle class="st1" cx="133.3" cy="319.1" r="7"/>
	<circle class="st1" cx="133.3" cy="345" r="7"/>
	<circle class="st1" cx="133.3" cy="241.3" r="7"/>
	<circle class="st1" cx="133.3" cy="267.2" r="7"/>
	<circle class="st1" cx="133.3" cy="293.2" r="7"/>
</g>
<g>
	<circle class="st1" cx="104" cy="215.4" r="7"/>
	<circle class="st1" cx="104" cy="189.5" r="7"/>
	<circle class="st1" cx="104" cy="319.1" r="7"/>
	<circle class="st1" cx="104" cy="345" r="7"/>
	<circle class="st1" cx="104" cy="241.3" r="7"/>
	<circle class="st1" cx="104" cy="267.2" r="7"/>
	<circle class="st1" cx="104" cy="293.2" r="7"/>
</g>
<g>
	<circle class="st1" cx="573" cy="215.4" r="7"/>
	<circle class="st1" cx="573" cy="189.5" r="7"/>
	<circle class="st1" cx="573" cy="319.1" r="7"/>
	<circle class="st1" cx="573" cy="345" r="7"/>
	<circle class="st1" cx="573" cy="241.3" r="7"/>
	<circle class="st1" cx="573" cy="267.2" r="7"/>
	<circle class="st1" cx="573" cy="293.2" r="7"/>
</g>
<g>
	<circle class="st1" cx="162.6" cy="215.4" r="7"/>
	<circle class="st1" cx="162.6" cy="189.5" r="7"/>
	<circle class="st1" cx="162.6" cy="319.1" r="7"/>
	<circle class="st1" cx="162.6" cy="345" r="7"/>
	<circle class="st1" cx="162.6" cy="241.3" r="7"/>
	<circle class="st1" cx="162.6" cy="267.2" r="7"/>
	<circle class="st1" cx="162.6" cy="293.2" r="7"/>
</g>
<g>
	<circle class="st2" cx="191.9" cy="215.4" r="7"/>
	<circle class="st1" cx="191.9" cy="189.5" r="7"/>
	<circle class="st2" cx="191.9" cy="319.1" r="7"/>
	<circle class="st1" cx="191.9" cy="345" r="7"/>
	<circle class="st2" cx="191.9" cy="241.3" r="7"/>
	<circle class="st2" cx="191.9" cy="267.2" r="7"/>
	<circle class="st2" cx="191.9" cy="293.2" r="7"/>
</g>
<g>
	<circle class="st1" cx="221.2" cy="215.4" r="7"/>
	<circle class="st1" cx="221.2" cy="189.5" r="7"/>
	<circle class="st2" cx="221.2" cy="319.1" r="7"/>
	<circle class="st1" cx="221.2" cy="345" r="7"/>
	<circle class="st1" cx="221.2" cy="241.3" r="7"/>
	<circle class="st1" cx="221.2" cy="267.2" r="7"/>
	<circle class="st1" cx="221.2" cy="293.2" r="7"/>
</g>
<g>
	<circle class="st1" cx="250.6" cy="215.4" r="7"/>
	<circle class="st1" cx="250.6" cy="189.5" r="7"/>
	<circle class="st2" cx="250.6" cy="319.1" r="7"/>
	<circle class="st1" cx="250.6" cy="345" r="7"/>
	<circle class="st1" cx="250.6" cy="241.3" r="7"/>
	<circle class="st1" cx="250.6" cy="267.2" r="7"/>
	<circle class="st1" cx="250.6" cy="293.2" r="7"/>
</g>
<g>
	<circle class="st1" cx="279.9" cy="215.4" r="7"/>
	<circle class="st1" cx="279.9" cy="189.5" r="7"/>
	<circle class="st1" cx="279.9" cy="319.1" r="7"/>
	<circle class="st1" cx="279.9" cy="345" r="7"/>
	<circle class="st1" cx="279.9" cy="241.3" r="7"/>
	<circle class="st1" cx="279.9" cy="267.2" r="7"/>
	<circle class="st1" cx="279.9" cy="293.2" r="7"/>
</g>
<g>
	<circle class="st2" cx="309.2" cy="215.4" r="7"/>
	<circle class="st1" cx="309.2" cy="189.5" r="7"/>
	<circle class="st2" cx="309.2" cy="319.1" r="7"/>
	<circle class="st1" cx="309.2" cy="345" r="7"/>
	<circle class="st2" cx="309.2" cy="241.3" r="7"/>
	<circle class="st2" cx="309.2" cy="267.2" r="7"/>
	<circle class="st2" cx="309.2" cy="293.2" r="7"/>
</g>
<g>
	<circle class="st2" cx="338.5" cy="215.4" r="7"/>
	<circle class="st1" cx="338.5" cy="189.5" r="7"/>
	<circle class="st2" cx="338.5" cy="319.1" r="7"/>
	<circle class="st1" cx="338.5" cy="345" r="7"/>
	<circle class="st1" cx="338.5" cy="241.3" r="7"/>
	<circle class="st2" cx="338.5" cy="267.2" r="7"/>
	<circle class="st1" cx="338.5" cy="293.2" r="7"/>
</g>
<g>
	<circle class="st2" cx="367.8" cy="215.4" r="7"/>
	<circle class="st1" cx="367.8" cy="189.5" r="7"/>
	<circle class="st2" cx="367.8" cy="319.1" r="7"/>
	<circle class="st1" cx="367.8" cy="345" r="7"/>
	<circle class="st1" cx="367.8" cy="241.3" r="7"/>
	<circle class="st2" cx="367.8" cy="267.2" r="7"/>
	<circle class="st1" cx="367.8" cy="293.2" r="7"/>
</g>
<g>
	<circle class="st1" cx="397.1" cy="215.4" r="7"/>
	<circle class="st1" cx="397.1" cy="189.5" r="7"/>
	<circle class="st1" cx="397.1" cy="319.1" r="7"/>
	<circle class="st1" cx="397.1" cy="345" r="7"/>
	<circle class="st1" cx="397.1" cy="241.3" r="7"/>
	<circle class="st1" cx="397.1" cy="267.2" r="7"/>
	<circle class="st1" cx="397.1" cy="293.2" r="7"/>
</g>
<g>
	<circle class="st2" cx="426.4" cy="215.4" r="7"/>
	<circle class="st1" cx="426.4" cy="189.5" r="7"/>
	<circle class="st2" cx="426.4" cy="319.1" r="7"/>
	<circle class="st1" cx="426.4" cy="345" r="7"/>
	<circle class="st2" cx="426.4" cy="241.3" r="7"/>
	<circle class="st2" cx="426.4" cy="267.2" r="7"/>
	<circle class="st2" cx="426.4" cy="293.2" r="7"/>
</g>
<g>
	<circle class="st2" cx="455.7" cy="215.4" r="7"/>
	<circle class="st1" cx="455.7" cy="189.5" r="7"/>
	<circle class="st2" cx="455.7" cy="319.1" r="7"/>
	<circle class="st1" cx="455.7" cy="345" r="7"/>
	<circle class="st1" cx="455.7" cy="241.3" r="7"/>
	<circle class="st1" cx="455.7" cy="267.2" r="7"/>
	<circle class="st1" cx="455.7" cy="293.2" r="7"/>
</g>
<g>
	<circle class="st1" cx="485.1" cy="215.4" r="7"/>
	<circle class="st1" cx="485.1" cy="189.5" r="7"/>
	<circle class="st1" cx="485.1" cy="319.1" r="7"/>
	<circle class="st1" cx="485.1" cy="345" r="7"/>
	<circle class="st2" cx="485.1" cy="241.3" r="7"/>
	<circle class="st2" cx="485.1" cy="267.2" r="7"/>
	<circle class="st2" cx="485.1" cy="293.2" r="7"/>
</g>
<g>
	<circle class="st1" cx="514.4" cy="215.4" r="7"/>
	<circle class="st1" cx="514.4" cy="189.5" r="7"/>
	<circle class="st1" cx="514.4" cy="319.1" r="7"/>
	<circle class="st1" cx="514.4" cy="345" r="7"/>
	<circle class="st1" cx="514.4" cy="241.3" r="7"/>
	<circle class="st1" cx="514.4" cy="267.2" r="7"/>
	<circle class="st1" cx="514.4" cy="293.2" r="7"/>
</g>
<g>
	<circle class="st1" cx="543.7" cy="215.4" r="7"/>
	<circle class="st1" cx="543.7" cy="189.5" r="7"/>
	<circle class="st1" cx="543.7" cy="319.1" r="7"/>
	<circle class="st1" cx="543.7" cy="345" r="7"/>
	<circle class="st1" cx="543.7" cy="241.3" r="7"/>
	<circle class="st1" cx="543.7" cy="267.2" r="7"/>
	<circle class="st1" cx="543.7" cy="293.2" r="7"/>
</g>
</svg>
