<svg xmlns="http://www.w3.org/2000/svg" viewBox="0 0 48 47">
    <defs>
        <style>.a{fill:#666;}</style>
    </defs>
    <title>Meeting_Mode</title>
    <path class="a"
          d="M36.3,27a4,4,0,0,1,4-4h1L43.58,29a0.8,0.8,0,0,0,.72.48A1.37,1.37,0,0,0,45.18,29L47.42,23H48.3a4,4,0,0,1,4,4v8h1.6V27a5.57,5.57,0,0,0-5.6-5.6h-8A5.57,5.57,0,0,0,34.7,27v8h1.6V27Zm8.08-.64L43.1,23h2.56Zm0,0"
          transform="translate(-20.3 -11.23)"/>
    <rect class="a" x="23.2" y="22.2" width="1.6" height="1.6"/>
    <path class="a"
          d="M43.5,20.63h1.6a4,4,0,0,0,4-4v-1.4a4,4,0,0,0-4-4H43.5a4,4,0,0,0-4,4v1.4a4,4,0,0,0,4,4h0Zm-2.4-5.4a2.36,2.36,0,0,1,2.4-2.4h1.6a2.36,2.36,0,0,1,2.4,2.4v1.4A2.36,2.36,0,0,1,45.1,19H43.5a2.36,2.36,0,0,1-2.4-2.4v-1.4Zm0,0"
          transform="translate(-20.3 -11.23)"/>
    <rect class="a" x="18.4" y="18.2" width="1.6" height="5.6"/>
    <rect class="a" x="28" y="18.2" width="1.6" height="5.6"/>
    <path class="a"
          d="M33.91,50.23h-8a5.57,5.57,0,0,0-5.6,5.6v2.4h1.6v-2.4a4,4,0,0,1,4-4h1l2.24,5.92a0.81,0.81,0,0,0,.72.48,1.38,1.38,0,0,0,.88-0.48L33,51.84h0.88a4,4,0,0,1,4,4v2.4h1.6v-2.4a5.57,5.57,0,0,0-5.6-5.6h0ZM30,55.2L28.7,51.84h2.56Zm0,0"
          transform="translate(-20.3 -11.23)"/>
    <path class="a"
          d="M29.1,49.43h1.6a4,4,0,0,0,4-4V44a4,4,0,0,0-4-4H29.1a4,4,0,0,0-4,4v1.4a4,4,0,0,0,4,4h0ZM26.7,44a2.36,2.36,0,0,1,2.4-2.4h1.6A2.36,2.36,0,0,1,33.1,44v1.4a2.36,2.36,0,0,1-2.4,2.4H29.1a2.36,2.36,0,0,1-2.4-2.4V44Zm0,0"
          transform="translate(-20.3 -11.23)"/>
    <path class="a"
          d="M62.7,50.23h-8a5.57,5.57,0,0,0-5.6,5.6v2.4h1.6v-2.4a4,4,0,0,1,4-4h1L58,57.75a0.81,0.81,0,0,0,.72.48,1.39,1.39,0,0,0,.88-0.48l2.24-5.92H62.7a4,4,0,0,1,4,4v2.4h1.6v-2.4a5.57,5.57,0,0,0-5.6-5.6h0Zm-3.92,5L57.5,51.84h2.56Zm0,0"
          transform="translate(-20.3 -11.23)"/>
    <path class="a"
          d="M53.91,45.43a4,4,0,0,0,4,4h1.6a4,4,0,0,0,4-4V44a4,4,0,0,0-4-4h-1.6a4,4,0,0,0-4,4v1.4ZM55.5,44a2.36,2.36,0,0,1,2.4-2.4h1.6a2.36,2.36,0,0,1,2.4,2.4v1.4a2.36,2.36,0,0,1-2.4,2.4h-1.6a2.36,2.36,0,0,1-2.4-2.4V44Zm0,0"
          transform="translate(-20.3 -11.23)"/>
    <path class="a" d="M36.3,46.23h16v-1.6H45.1v-7.2H43.5v7.2H36.3v1.6Zm0,0" transform="translate(-20.3 -11.23)"/>
</svg>