<?xml version="1.0" encoding="utf-8"?>
<!-- Generator: Adobe Illustrator 19.2.0, SVG Export Plug-In . SVG Version: 6.00 Build 0)  -->
<!DOCTYPE svg PUBLIC "-//W3C//DTD SVG 1.1//EN" "http://www.w3.org/Graphics/SVG/1.1/DTD/svg11.dtd">
<svg version="1.1" id="Layer_1" xmlns="http://www.w3.org/2000/svg" xmlns:xlink="http://www.w3.org/1999/xlink" x="0px" y="0px"
	 viewBox="0 0 278 268" style="enable-background:new 0 0 278 268;" xml:space="preserve">
<style type="text/css">
	.st0{clip-path:url(#SVGID_2_);fill:#666666;}
	.st1{fill:#666666;}
</style>
<g>
	<g>
		<defs>
			<rect id="SVGID_1_" x="22" y="13" width="235.9" height="236"/>
		</defs>
		<clipPath id="SVGID_2_">
			<use xlink:href="#SVGID_1_"  style="overflow:visible;"/>
		</clipPath>
		<path class="st0" d="M223.3,47.5c-9-9-19.1-16.4-30-21.8c-2.4-1.2-5.3-0.2-6.4,2.1s-0.2,5.3,2.1,6.4c10,5,19.2,11.7,27.5,20
			c42.2,42.2,42.2,111,0,153.2s-111,42.2-153.2,0C21,165.3,21,96.6,63.3,54.3c20.5-20.5,47.7-31.7,76.6-31.7c2.6,0,4.8-2.2,4.8-4.8
			c0-2.7-2.1-4.8-4.8-4.8c-31.5,0-61.1,12.3-83.4,34.5c-46,46-46,120.8,0,166.8c23,23,53.2,34.5,83.4,34.5
			c30.2,0,60.4-11.5,83.4-34.5C269.3,168.3,269.3,93.5,223.3,47.5L223.3,47.5z M223.3,47.5"/>
	</g>
	<path class="st1" d="M139.9,54.6c-2.7,0-4.8,2.1-4.8,4.8v143.1c0,2.7,2.1,4.8,4.8,4.8c2.6,0,4.8-2.1,4.8-4.8V59.4
		C144.7,56.7,142.5,54.6,139.9,54.6L139.9,54.6z M139.9,54.6"/>
	<path class="st1" d="M159.1,135.7h52.3c2.7,0,4.8-2.2,4.8-4.8c0-2.7-2.1-4.8-4.8-4.8h-52.3c-2.7,0-4.8,2.1-4.8,4.8
		C154.3,133.6,156.4,135.7,159.1,135.7L159.1,135.7z M159.1,135.7"/>
	<path class="st1" d="M68.3,126.1c-2.6,0-4.8,2.1-4.8,4.8c0,2.6,2.1,4.8,4.8,4.8h50.7c2.6,0,4.8-2.2,4.8-4.8c0-2.7-2.2-4.8-4.8-4.8
		H68.3z M68.3,126.1"/>
</g>
</svg>
