<?xml version="1.0"?>
<svg width="853" height="480" xmlns="http://www.w3.org/2000/svg" xmlns:svg="http://www.w3.org/2000/svg">
 <defs>
  <style>.a{fill:none;}.b{clip-path:url(#a);}</style>
  <clipPath id="a">
   <rect class="a" x="15.48" y="14.18" width="53.83" height="39.4" id="svg_1"/>
  </clipPath>
 </defs>
 <title>NoPreview</title>
 <g>
  <title>Layer 1</title>
  <g class="b" id="svg_2">
   <path d="m-83.31,30.57l-47.54,0a0.57,0.57 0 0 0 -0.57,0.57l0,29a0.57,0.57 0 0 0 0.57,0.57l47.54,0a0.57,0.57 0 0 0 0.57,-0.57l0,-29a0.57,0.57 0 0 0 -0.57,-0.57l0,0zm-0.57,29l-46.4,0l0,-27.85l46.4,0l0,27.82l0,0.03zm0,0" id="svg_3"/>
   <path d="m-82.67,28l-48.81,0a2.51,2.51 0 0 0 -2.51,2.51l0,30.21a2.51,2.51 0 0 0 2.51,2.54l17,0l-1.19,2.19l-2.81,0a0.86,0.86 0 1 0 0,1.71l22.82,0a0.86,0.86 0 0 0 0,-1.71l-2.82,0l-1.19,-2.19l17,0a2.51,2.51 0 0 0 2.51,-2.54l0,-30.21a2.51,2.51 0 0 0 -2.51,-2.51l0,0zm-17.62,37.45l-13.58,0l1.19,-2.19l11.2,0l1.19,2.19zm18.41,-4.73a0.79,0.79 0 0 1 -0.79,0.79l-48.81,0a0.79,0.79 0 0 1 -0.8,-0.79l0,-30.21a0.79,0.79 0 0 1 0.8,-0.79l48.81,0a0.79,0.79 0 0 1 0.79,0.79l0,30.21zm0,0" id="svg_4"/>
  </g>
  <text font-weight="bold" style="cursor: move;" stroke="#000000" transform="matrix(3.5165738509787956,0,0,3.5165738509787956,-1380.2653243973068,-523.1439101027356) " xml:space="preserve" text-anchor="middle" font-family="Sans-serif" font-size="24" id="svg_5" y="224.013143" x="513.985749" stroke-width="0" fill="#000000">No Preview Found</text>
 </g>
</svg>