<svg xmlns="http://www.w3.org/2000/svg" xmlns:xlink="http://www.w3.org/1999/xlink" viewBox="0 0 240.5 134.5"><defs><style>.a{fill:url(#a);}.b{fill:url(#b);}.c{fill:#666766;}</style><linearGradient id="a" x1="19.29" y1="2.98" x2="236.96" y2="132.97" gradientUnits="userSpaceOnUse"><stop offset="0" stop-color="gray"/><stop offset="1" stop-color="#b3b3b3"/></linearGradient><linearGradient id="b" x1="-1.02" y1="7.92" x2="114.66" y2="88.92" gradientUnits="userSpaceOnUse"><stop offset="0" stop-color="#4d4d4d"/><stop offset="1" stop-color="#b3b3b3"/></linearGradient></defs><title>Panel_Gradient_Plus</title><rect class="a" x="13.32" width="227.18" height="134.5"/><polygon class="b" points="85.35 134.5 0 134.5 0 0 167.43 0 85.35 134.5"/><path class="c" d="M123.94,36.58A1.94,1.94,0,0,0,122,38.52h0V96.22a1.94,1.94,0,1,0,3.87,0V38.52a1.94,1.94,0,0,0-1.94-1.94Z"/><path class="c" d="M154.72,67.37a1.94,1.94,0,0,0-1.94-1.94H95.08a1.94,1.94,0,0,0,0,3.87h57.71a1.94,1.94,0,0,0,1.94-1.94Z"/></svg>