<svg xmlns="http://www.w3.org/2000/svg" viewBox="0 0 46.79 40.62">
    <title>Plug_black</title>
    <path d="M63.16,49.54c-2.9,2.5-6.79,1-8.13-.37l-0.44-.44L55.31,48a3.52,3.52,0,0,0,1-2.51,3.57,3.57,0,0,0-1-2.51l-2.64-2.64A13.5,13.5,0,0,0,49.4,26.61h0L42.76,20,44,18.79a1.47,1.47,0,0,0-2.08-2.08L37,21.58,29,13.53a1.47,1.47,0,1,0-2.08,2.08l8.05,8.05L27.4,31.18l-8.05-8.05a1.47,1.47,0,0,0-2.08,2.08l8.05,8.05-4.87,4.87a1.47,1.47,0,0,0,2.09,2.08L23.74,39l6.62,6.62a13.42,13.42,0,0,0,9.52,3.93,13.58,13.58,0,0,0,4.21-.69l2.64,2.64a3.57,3.57,0,0,0,5,0l0.73-.73,0.44,0.44c2.49,2.49,8.21,3.55,10.7,1.06M32.45,43.56l-6.63-6.63L40.68,22.06l6.62,6.62A10.51,10.51,0,0,1,32.45,43.56h0Zm21,1.76a0.6,0.6,0,0,1,.18.42,0.57,0.57,0,0,1-.18.42l-3.55,3.55a0.59,0.59,0,0,1-.85,0l-2.14-2.13a13.13,13.13,0,0,0,4.4-4.4Z"
          transform="translate(-16.84 -13.1)"/>
</svg>