<?xml version="1.0" encoding="utf-8"?>
<!-- Generator: Adobe Illustrator 19.2.0, SVG Export Plug-In . SVG Version: 6.00 Build 0)  -->
<!DOCTYPE svg PUBLIC "-//W3C//DTD SVG 1.1//EN" "http://www.w3.org/Graphics/SVG/1.1/DTD/svg11.dtd">
<svg version="1.1" id="Layer_1" xmlns="http://www.w3.org/2000/svg" xmlns:xlink="http://www.w3.org/1999/xlink" x="0px" y="0px"
	 viewBox="0 0 73.3 56.7" style="enable-background:new 0 0 73.3 56.7;" xml:space="preserve">
<style type="text/css">
	.st0{fill:#666666;}
</style>
<g>
	<path class="st0" d="M18.1,17.1h13c0.4,0,0.8-0.4,0.8-0.8c0-0.4-0.4-0.8-0.8-0.8h-13c-0.4,0-0.8,0.4-0.8,0.8
		C17.3,16.8,17.6,17.1,18.1,17.1L18.1,17.1z M18.1,17.1"/>
	<path class="st0" d="M18.1,14.7h8.2c0.4,0,0.8-0.4,0.8-0.8c0-0.4-0.4-0.8-0.8-0.8h-8.2c-0.4,0-0.8,0.4-0.8,0.8
		C17.3,14.4,17.6,14.7,18.1,14.7L18.1,14.7z M18.1,14.7"/>
	<path class="st0" d="M31.9,18.7c0-0.4-0.4-0.8-0.8-0.8h-13c-0.4,0-0.8,0.4-0.8,0.8c0,0.4,0.4,0.8,0.8,0.8h13
		C31.5,19.5,31.9,19.2,31.9,18.7L31.9,18.7z M31.9,18.7"/>
	<path class="st0" d="M60.7,7.5H37.5V5.1c0-0.4-0.4-0.8-0.8-0.8s-0.8,0.4-0.8,0.8v2.4H12.7v33.6h22.1L24.9,51
		c-0.3,0.3-0.3,0.8,0,1.1c0.2,0.2,0.4,0.2,0.6,0.2c0.2,0,0.4-0.1,0.6-0.2l9.8-9.8v5.7c0,0.4,0.4,0.8,0.8,0.8s0.8-0.4,0.8-0.8v-5.7
		l9.8,9.8c0.2,0.2,0.4,0.2,0.6,0.2c0.2,0,0.4-0.1,0.6-0.2c0.3-0.3,0.3-0.8,0-1.1l-9.8-9.8h22.1V7.5z M59.1,39.5H14.3V9.1h44.8V39.5z
		 M59.1,39.5"/>
	<path class="st0" d="M45.5,20.3h3.7l-9.6,9.6l-6.6-6.6c-0.3-0.3-0.8-0.3-1.1,0L21.7,33.4c-0.3,0.3-0.3,0.8,0,1.1
		c0.2,0.2,0.4,0.2,0.6,0.2c0.2,0,0.4-0.1,0.6-0.2l9.5-9.5l6.6,6.6c0.2,0.2,0.4,0.2,0.6,0.2c0.2,0,0.4-0.1,0.6-0.2l10.2-10.2v3.7
		c0,0.4,0.4,0.8,0.8,0.8c0.4,0,0.8-0.4,0.8-0.8v-5.6c0-0.1,0-0.2-0.1-0.3c-0.1-0.2-0.2-0.4-0.4-0.4c-0.1,0-0.2-0.1-0.3-0.1h-5.6
		c-0.4,0-0.8,0.4-0.8,0.8C44.7,20,45,20.3,45.5,20.3L45.5,20.3z M45.5,20.3"/>
</g>
</svg>
