<svg xmlns="http://www.w3.org/2000/svg" viewBox="0 0 104.24 39.5"><defs><style>.a,.b{fill:none;stroke:#fff;stroke-miterlimit:10;}.a{stroke-width:2.5px;}.b{stroke-width:1.41px;}.c{fill:#fff;}</style></defs><title>Projector_white</title><path class="a" d="M37.41,27.89H20.3a1,1,0,0,0-1,1V54.14a1,1,0,0,0,1,1h17.1a18.44,18.44,0,0,1,0-27.25Z" transform="translate(-18.05 -21.77)"/><path class="a" d="M120,27.89H62.38a18.44,18.44,0,0,1,0,27.25H120a1,1,0,0,0,1-1V28.89A1,1,0,0,0,120,27.89Z" transform="translate(-18.05 -21.77)"/><path class="a" d="M37.41,55.14a18.42,18.42,0,0,0,25,0" transform="translate(-18.05 -21.77)"/><path class="a" d="M62.38,27.89a18.42,18.42,0,0,0-25,0" transform="translate(-18.05 -21.77)"/><circle class="b" cx="31.81" cy="19.72" r="13.05"/><rect class="c" x="4.98" y="33.37" width="7.78" height="4.88"/><rect class="c" x="91.09" y="33.37" width="7.78" height="4.88"/><rect class="b" x="59.98" y="11.69" width="4" height="16.05"/><rect class="b" x="68.98" y="11.69" width="4" height="16.05"/><rect class="b" x="77.98" y="11.69" width="4" height="16.05"/></svg>