<svg xmlns="http://www.w3.org/2000/svg" xmlns:xlink="http://www.w3.org/1999/xlink" viewBox="0 0 376.8 274.12">
<defs>
    <style>.a{fill:none;}.b{clip-path:url(#a);}.c{font-size:134px;font-family:Digital-7 Italic;font-style:italic;}
    </style>
    <clipPath id="a" transform="translate(-28 -14.68)">
        <rect class="a" x="28" y="14" width="376.8" height="275.76"/>
    </clipPath>
</defs>
<title>TV-tuner-black</title>
<g class="b">
    <path d="M382.8,32.68H50a4,4,0,0,0-4,4V239.48a4,4,0,0,0,4,4H382.8a4,4,0,0,0,4-4V36.68a4,4,0,0,0-4-4h0Zm-4,202.79H54V40.68H378.8V235.48Zm0,0"
          transform="translate(-28 -14.68)"/>
    <path d="M387.24,14.68H45.56A17.58,17.58,0,0,0,28,32.24V243.92a17.58,17.58,0,0,0,17.56,17.55H164.23L157.9,276.8H132.48a6,6,0,1,0,0,12H300.32a6,6,0,1,0,0-12H274.9l-6.33-15.32H387.25a17.57,17.57,0,0,0,17.55-17.55V32.24a17.58,17.58,0,0,0-17.56-17.55h0ZM261.91,276.8h-91l6.33-15.33h78.37ZM392.8,243.92a5.56,5.56,0,0,1-5.56,5.55H45.56A5.56,5.56,0,0,1,40,243.92V32.24a5.56,5.56,0,0,1,5.56-5.55H387.24a5.56,5.56,0,0,1,5.56,5.55V243.92Zm0,0"
          transform="translate(-28 -14.68)"/>
</g>
<text class="c" transform="translate(125.05 165.32)">35</text>
</svg>