<svg viewBox="0 0 95 58" xmlns="http://www.w3.org/2000/svg" xmlns:svg="http://www.w3.org/2000/svg">
    <title>VTC</title>
    <defs>
        <style>path { fill: black; }</style>
    </defs>
    <g>
        <title>Layer 1</title>
        <path d="m69.10934,11.75737l-9.55292,0l-11.60126,-10.3682l-38.30229,0l0,2.59205l37.10592,0l8.70095,7.77615l-54.50781,0l0,44.06485l68.15742,0l0,-11.98824l24.65269,12.96025l0,-46.07369l-24.65269,12.96025l0,-11.98824l0,0.0648l0,0.00001zm21.75237,3.49927l0,36.93671l-24.65269,-12.96025l0,13.93227l-62.35679,0l0,-38.88075l62.35679,0l0,13.93227l24.65269,-12.96025l0,0.00001zm0,0" id="svg_1" fill="black"/>
        <path d="m27.53,39l16,0l0,-9.6l-16,0l0,9.6zm1.6,-8l12.8,0l0,6.4l-12.81,0l0,-6.4l0.01,0zm0,0" id="svg_2"/>
        <path d="m27.53,39l16,0l0,-9.6l-16,0l0,9.6zm1.6,-8l12.8,0l0,6.4l-12.81,0l0,-6.4l0.01,0zm0,0" id="svg_3"/>
    </g>
</svg>