<svg xmlns="http://www.w3.org/2000/svg" viewBox="0 0 48 48"><defs><style>.a,.b{fill:none;stroke-miterlimit:10;}.a{stroke:#231f20;stroke-linecap:round;stroke-width:0.45px;}.b{stroke:#000;stroke-width:0.47px;}</style></defs><title>Activities</title><path d="M60.63,11.2H37.43V8.8a0.8,0.8,0,1,0-1.6,0v2.4H12.63V44.8H34.7l-9.84,9.83A0.8,0.8,0,0,0,26,55.77l9.83-9.84V51.6a0.8,0.8,0,0,0,1.6,0V45.93l9.83,9.84a0.8,0.8,0,0,0,1.13-1.13L38.56,44.8H60.63V11.2ZM59,43.2H14.23V12.8H59V43.2Zm0,0" transform="translate(-12.63 -8)"/><polyline class="a" points="9.5 29.04 19.53 19.01 26.74 26.16 38.31 14.59"/><polyline class="b" points="32.49 14.4 38.5 14.4 38.5 20.4"/><line class="a" x1="4.6" y1="9.06" x2="14.4" y2="9.06"/><line class="a" x1="4.6" y1="11.3" x2="19.2" y2="11.3"/><line class="a" x1="4.6" y1="14.4" x2="19.2" y2="14.4"/></svg>