<svg xmlns="http://www.w3.org/2000/svg" viewBox="0 0 89.91 32.68"><defs><style>.a,.b,.e{fill:none;}.a{stroke:#000;}.a,.b,.c{stroke-miterlimit:10;}.b,.c,.e{stroke:#666767;}.b,.c{stroke-width:0.44px;}.c{fill:#fff;}.d{fill:#666767;}.e{stroke-linecap:round;stroke-linejoin:round;stroke-width:0.29px;}</style></defs><title>Processor</title><rect class="a" x="0.5" y="0.5" width="88.91" height="31.68" rx="1" ry="1"/><rect class="b" x="5.46" y="2.94" width="3.7" height="27.35" rx="1" ry="1"/><rect class="b" x="80.88" y="2.94" width="3.7" height="27.35" rx="1" ry="1"/><circle class="b" cx="2.85" cy="10.38" r="1.08"/><circle class="c" cx="2.85" cy="22.85" r="1.08"/><circle class="b" cx="86.85" cy="10.38" r="1.08"/><circle class="d" cx="44.46" cy="13.39" r="0.77"/><circle class="b" cx="44.46" cy="8.52" r="1.83"/><circle class="d" cx="44.46" cy="15.8" r="0.77"/><circle class="d" cx="44.46" cy="18.14" r="0.77"/><circle class="d" cx="44.46" cy="20.55" r="0.77"/><circle class="d" cx="44.46" cy="23.1" r="0.77"/><circle class="d" cx="44.46" cy="25.51" r="0.77"/><circle class="c" cx="86.85" cy="22.85" r="1.08"/><line class="e" x1="11.68" y1="6.25" x2="11.68" y2="9.71"/><line class="e" x1="14.7" y1="6.25" x2="14.7" y2="9.71"/><line class="e" x1="17.72" y1="6.25" x2="17.72" y2="9.71"/><line class="e" x1="20.74" y1="6.25" x2="20.74" y2="9.71"/><line class="e" x1="23.76" y1="6.25" x2="23.76" y2="9.71"/><line class="e" x1="26.78" y1="6.25" x2="26.78" y2="9.71"/><line class="e" x1="29.8" y1="6.25" x2="29.8" y2="9.71"/><line class="e" x1="32.82" y1="6.25" x2="32.82" y2="9.71"/><line class="e" x1="35.84" y1="6.25" x2="35.84" y2="9.71"/><line class="e" x1="38.86" y1="6.25" x2="38.86" y2="9.71"/><line class="e" x1="11.68" y1="12.03" x2="11.68" y2="15.49"/><line class="e" x1="14.7" y1="12.03" x2="14.7" y2="15.49"/><line class="e" x1="17.72" y1="12.03" x2="17.72" y2="15.49"/><line class="e" x1="20.74" y1="12.03" x2="20.74" y2="15.49"/><line class="e" x1="23.76" y1="12.03" x2="23.76" y2="15.49"/><line class="e" x1="26.78" y1="12.03" x2="26.78" y2="15.49"/><line class="e" x1="29.8" y1="12.03" x2="29.8" y2="15.49"/><line class="e" x1="32.82" y1="12.03" x2="32.82" y2="15.49"/><line class="e" x1="35.84" y1="12.03" x2="35.84" y2="15.49"/><line class="e" x1="38.86" y1="12.03" x2="38.86" y2="15.49"/><line class="e" x1="11.68" y1="17.12" x2="11.68" y2="20.58"/><line class="e" x1="14.7" y1="17.12" x2="14.7" y2="20.58"/><line class="e" x1="17.72" y1="17.12" x2="17.72" y2="20.58"/><line class="e" x1="20.74" y1="17.12" x2="20.74" y2="20.58"/><line class="e" x1="23.76" y1="17.12" x2="23.76" y2="20.58"/><line class="e" x1="26.78" y1="17.12" x2="26.78" y2="20.58"/><line class="e" x1="29.8" y1="17.12" x2="29.8" y2="20.58"/><line class="e" x1="32.82" y1="17.12" x2="32.82" y2="20.58"/><line class="e" x1="35.84" y1="17.12" x2="35.84" y2="20.58"/><line class="e" x1="38.86" y1="17.12" x2="38.86" y2="20.58"/><line class="e" x1="11.68" y1="22.9" x2="11.68" y2="26.36"/><line class="e" x1="14.7" y1="22.9" x2="14.7" y2="26.36"/><line class="e" x1="17.72" y1="22.9" x2="17.72" y2="26.36"/><line class="e" x1="20.74" y1="22.9" x2="20.74" y2="26.36"/><line class="e" x1="23.76" y1="22.9" x2="23.76" y2="26.36"/><line class="e" x1="26.78" y1="22.9" x2="26.78" y2="26.36"/><line class="e" x1="29.8" y1="22.9" x2="29.8" y2="26.36"/><line class="e" x1="32.82" y1="22.9" x2="32.82" y2="26.36"/><line class="e" x1="35.84" y1="22.9" x2="35.84" y2="26.36"/><line class="e" x1="38.86" y1="22.9" x2="38.86" y2="26.36"/><line class="e" x1="50" y1="6.25" x2="50" y2="9.71"/><line class="e" x1="53.02" y1="6.25" x2="53.02" y2="9.71"/><line class="e" x1="56.04" y1="6.25" x2="56.04" y2="9.71"/><line class="e" x1="59.06" y1="6.25" x2="59.06" y2="9.71"/><line class="e" x1="62.07" y1="6.25" x2="62.07" y2="9.71"/><line class="e" x1="65.09" y1="6.25" x2="65.09" y2="9.71"/><line class="e" x1="68.11" y1="6.25" x2="68.11" y2="9.71"/><line class="e" x1="71.13" y1="6.25" x2="71.13" y2="9.71"/><line class="e" x1="74.15" y1="6.25" x2="74.15" y2="9.71"/><line class="e" x1="77.17" y1="6.25" x2="77.17" y2="9.71"/><line class="e" x1="50" y1="12.03" x2="50" y2="15.49"/><line class="e" x1="53.02" y1="12.03" x2="53.02" y2="15.49"/><line class="e" x1="56.04" y1="12.03" x2="56.04" y2="15.49"/><line class="e" x1="59.06" y1="12.03" x2="59.06" y2="15.49"/><line class="e" x1="62.07" y1="12.03" x2="62.07" y2="15.49"/><line class="e" x1="65.09" y1="12.03" x2="65.09" y2="15.49"/><line class="e" x1="68.11" y1="12.03" x2="68.11" y2="15.49"/><line class="e" x1="71.13" y1="12.03" x2="71.13" y2="15.49"/><line class="e" x1="74.15" y1="12.03" x2="74.15" y2="15.49"/><line class="e" x1="77.17" y1="12.03" x2="77.17" y2="15.49"/><line class="e" x1="50" y1="17.12" x2="50" y2="20.58"/><line class="e" x1="53.02" y1="17.12" x2="53.02" y2="20.58"/><line class="e" x1="56.04" y1="17.12" x2="56.04" y2="20.58"/><line class="e" x1="59.06" y1="17.12" x2="59.06" y2="20.58"/><line class="e" x1="62.07" y1="17.12" x2="62.07" y2="20.58"/><line class="e" x1="65.09" y1="17.12" x2="65.09" y2="20.58"/><line class="e" x1="68.11" y1="17.12" x2="68.11" y2="20.58"/><line class="e" x1="71.13" y1="17.12" x2="71.13" y2="20.58"/><line class="e" x1="74.15" y1="17.12" x2="74.15" y2="20.58"/><line class="e" x1="77.17" y1="17.12" x2="77.17" y2="20.58"/><line class="e" x1="50" y1="22.9" x2="50" y2="26.36"/><line class="e" x1="53.02" y1="22.9" x2="53.02" y2="26.36"/><line class="e" x1="56.04" y1="22.9" x2="56.04" y2="26.36"/><line class="e" x1="59.06" y1="22.9" x2="59.06" y2="26.36"/><line class="e" x1="62.07" y1="22.9" x2="62.07" y2="26.36"/><line class="e" x1="65.09" y1="22.9" x2="65.09" y2="26.36"/><line class="e" x1="68.11" y1="22.9" x2="68.11" y2="26.36"/><line class="e" x1="71.13" y1="22.9" x2="71.13" y2="26.36"/><line class="e" x1="74.15" y1="22.9" x2="74.15" y2="26.36"/><line class="e" x1="77.17" y1="22.9" x2="77.17" y2="26.36"/></svg>